<?xml version="1.0" encoding="UTF-8" standalone="no"?>
<!-- Created with Inkscape (http://www.inkscape.org/) -->

<svg
   xmlns:dc="http://purl.org/dc/elements/1.1/"
   xmlns:cc="http://creativecommons.org/ns#"
   xmlns:rdf="http://www.w3.org/1999/02/22-rdf-syntax-ns#"
   xmlns:svg="http://www.w3.org/2000/svg"
   xmlns="http://www.w3.org/2000/svg"
   xmlns:sodipodi="http://sodipodi.sourceforge.net/DTD/sodipodi-0.dtd"
   xmlns:inkscape="http://www.inkscape.org/namespaces/inkscape"
   width="184.41574mm"
   height="84.578087mm"
   viewBox="0 0 184.41574 84.578087"
   version="1.1"
   id="svg8"
   inkscape:version="0.92.4 (fd57863, 2020-04-02)"
   sodipodi:docname="logo_handmade_small.svg">
  <defs
     id="defs2" />
  <sodipodi:namedview
     id="base"
     pagecolor="#ffffff"
     bordercolor="#666666"
     borderopacity="1.0"
     inkscape:pageopacity="0.0"
     inkscape:pageshadow="2"
     inkscape:zoom="1.4142136"
     inkscape:cx="388.62079"
     inkscape:cy="189.71922"
     inkscape:document-units="mm"
     inkscape:current-layer="layer1"
     showgrid="false"
     inkscape:window-width="1920"
     inkscape:window-height="1016"
     inkscape:window-x="0"
     inkscape:window-y="27"
     inkscape:window-maximized="1"
     inkscape:snap-text-baseline="false" />
  <metadata
     id="metadata5">
    <rdf:RDF>
      <cc:Work
         rdf:about="">
        <dc:format>image/svg+xml</dc:format>
        <dc:type
           rdf:resource="http://purl.org/dc/dcmitype/StillImage" />
        <dc:title></dc:title>
      </cc:Work>
    </rdf:RDF>
  </metadata>
  <g
     inkscape:label="Layer 1"
     inkscape:groupmode="layer"
     id="layer1"
     transform="translate(-8.2497469,-94.590983)">
    <text
       xml:space="preserve"
       style="font-style:normal;font-variant:normal;font-weight:normal;font-stretch:normal;font-size:10.58333302px;line-height:1.25;font-family:'Noto Sans Sinhala';-inkscape-font-specification:'Noto Sans Sinhala';letter-spacing:0px;word-spacing:0px;fill:#000000;fill-opacity:1;stroke:none;stroke-width:0.26458332"
       x="50.006248"
       y="51.202084"
       id="text3731"><tspan
         sodipodi:role="line"
         id="tspan3729"
         x="50.006248"
         y="60.831596"
         style="font-style:normal;font-variant:normal;font-weight:normal;font-stretch:normal;font-family:'Noto Sans Sinhala';-inkscape-font-specification:'Noto Sans Sinhala';stroke-width:0.26458332" /></text>
    <g
       id="g1096"
       transform="matrix(1.3151723,0,0,1.2868652,3.7998616,103.09019)">
      <path
         id="path1726"
         style="color:#000000;fill:none;stroke:#ffffff;stroke-width:9.48680019;stroke-linecap:round;stroke-linejoin:round"
         d="M 11.159,8.1269 H 34.34 c 1.68,0 3.032,1.3523 3.032,3.0321 V 34.34 c 0,1.68 -1.352,3.032 -3.032,3.032 H 11.159 C 9.4792,37.372 8.1269,36.02 8.1269,34.34 V 11.159 c 0,-1.6798 1.3523,-3.0321 3.0321,-3.0321 z"
         inkscape:connector-curvature="0" />
      <path
         id="path1718"
         style="color:#000000;fill:#ffffff;fill-rule:evenodd;stroke:#000000;stroke-width:4.7434001;stroke-linecap:round;stroke-linejoin:round"
         d="M 11.159,8.1269 H 34.34 c 1.68,0 3.032,1.3523 3.032,3.0321 V 34.34 c 0,1.68 -1.352,3.032 -3.032,3.032 H 11.159 C 9.4792,37.372 8.1269,36.02 8.1269,34.34 V 11.159 c 0,-1.6798 1.3523,-3.0321 3.0321,-3.0321 z"
         inkscape:connector-curvature="0" />
      <path
         id="path1722"
         style="color:#000000;fill:none;stroke:#ffffff;stroke-width:8.51329994;stroke-linecap:round;stroke-linejoin:round"
         transform="matrix(1.1144,0,0,1.1144,-17.43,-16.004)"
         d="m 40.912,36.911 h 20.802 c 1.507,0 2.721,1.214 2.721,2.721 v 20.802 c 0,1.507 -1.214,2.721 -2.721,2.721 H 40.912 c -1.508,0 -2.721,-1.214 -2.721,-2.721 V 39.632 c 0,-1.507 1.213,-2.721 2.721,-2.721 z"
         inkscape:connector-curvature="0" />
      <path
         id="path1719"
         style="color:#000000;fill:#000000;fill-rule:evenodd;stroke:#000000;stroke-width:4.2565999;stroke-linecap:round;stroke-linejoin:round"
         transform="matrix(1.1144,0,0,1.1144,-17.43,-16.004)"
         d="m 40.912,36.911 h 20.802 c 1.507,0 2.721,1.214 2.721,2.721 v 20.802 c 0,1.507 -1.214,2.721 -2.721,2.721 H 40.912 c -1.508,0 -2.721,-1.214 -2.721,-2.721 V 39.632 c 0,-1.507 1.213,-2.721 2.721,-2.721 z"
         inkscape:connector-curvature="0" />
    </g>
    <path
       style="fill:#00b1e4;fill-opacity:1;stroke:#00b1e4;stroke-width:0;stroke-miterlimit:4;stroke-dasharray:none;stroke-opacity:1"
       d="M 67.296426,109.75204 V 95.902048 l 2.524653,0.0522 2.524653,0.0522 4.351211,12.016192 c 2.393167,6.6089 4.394142,12.05802 4.446617,12.10914 0.05247,0.0511 2.03451,-5.37689 4.404528,-12.06227 l 4.309122,-12.155248 2.54409,-7.93e-4 2.544088,-7.94e-4 v 13.844565 13.84457 h -1.72806 -1.72806 v -11.63068 c 0,-6.39687 -0.04505,-11.58678 -0.100135,-11.53312 -0.05507,0.0537 -1.944604,5.26643 -4.19896,11.58391 l -4.098824,11.48634 h -1.963278 -1.963274 l -4.158126,-11.55224 -4.158125,-11.55225 -0.04946,11.59902 -0.04946,11.59902 h -1.726607 -1.726604 z"
       id="path4925"
       inkscape:connector-curvature="0" />
    <path
       style="fill:#00b1e4;fill-opacity:1;stroke:#00b1e4;stroke-width:0;stroke-miterlimit:4;stroke-dasharray:none;stroke-opacity:1"
       d="m 106.8498,124.32807 c -1.62299,-0.25461 -3.65612,-1.31443 -4.71841,-2.45958 -1.82636,-1.96882 -2.653767,-4.46726 -2.647728,-7.99507 0.0047,-2.77705 0.345858,-4.34676 1.348618,-6.20613 1.736,-3.219 5.52651,-4.90379 9.69941,-4.31117 5.09478,0.72355 7.83852,4.43771 7.83852,10.61085 0,3.71127 -0.80482,6.05113 -2.74035,7.96707 -2.08003,2.05897 -5.30701,2.93886 -8.78006,2.39403 z m 3.96925,-2.87669 c 2.62322,-0.75906 4.28038,-3.69288 4.28038,-7.57796 0,-5.12611 -2.56573,-8.10347 -6.73278,-7.81296 -2.42877,0.16933 -4.2312,1.65825 -5.08793,4.20295 -0.29221,0.86796 -0.36396,1.6256 -0.35954,3.7971 0.005,2.48187 0.0475,2.81081 0.49835,3.86437 0.791,1.84826 1.86846,2.91162 3.51071,3.46477 1.20789,0.40685 2.62066,0.42927 3.89081,0.0617 z"
       id="path4929"
       inkscape:connector-curvature="0" />
    <path
       style="fill:#00b1e4;fill-opacity:1;stroke:#00b1e4;stroke-width:0.00286536;stroke-miterlimit:4;stroke-dasharray:none;stroke-opacity:1"
       d="m 122.40234,113.68634 v -9.9157 h 1.53606 1.53605 l 0.002,1.73057 0.002,1.73056 0.51537,-0.6548 c 0.97094,-1.23364 2.05079,-2.11154 3.30929,-2.69038 1.16657,-0.53657 1.40766,-0.57834 3.27533,-0.56753 3.20964,0.0186 5.02199,0.92054 6.08401,3.02786 l 0.54022,1.07194 0.0624,8.09159 0.0624,8.09158 h -1.64641 -1.64641 l -0.001,-7.15614 c -5.5e-4,-4.34528 -0.0789,-7.42943 -0.19939,-7.85191 -0.25893,-0.90845 -0.99865,-1.74767 -1.98377,-2.25063 -0.99679,-0.50891 -3.47658,-0.56358 -4.5628,-0.1006 -1.69056,0.72057 -2.99629,2.52666 -3.41119,4.71839 -0.123,0.64975 -0.21014,3.50103 -0.21014,6.8755 v 5.76539 h -1.63206 -1.63206 z"
       id="path4931"
       inkscape:connector-curvature="0" />
    <path
       style="fill:#00b1e4;fill-opacity:1;stroke:#00b1e4;stroke-width:0.00071634;stroke-miterlimit:4;stroke-dasharray:none;stroke-opacity:1"
       d="m 151.52976,124.53088 c -3.14583,-0.14246 -5.52144,-1.43483 -7.08087,-3.85211 -1.25348,-1.94301 -1.82505,-4.52985 -1.69633,-7.67739 0.13904,-3.40001 1.24989,-6.0436 3.23282,-7.69349 1.3744,-1.14356 2.94011,-1.80485 4.87236,-2.05787 0.67298,-0.0881 2.33711,-0.0741 3.09611,0.0261 1.53332,0.2024 2.9082,0.69972 3.99482,1.44501 0.54891,0.37649 1.44033,1.24828 1.84981,1.80908 0.47301,0.6478 1.07253,1.83943 1.37188,2.72675 0.92299,2.73594 0.96279,6.39818 0.0991,9.12516 -0.52009,1.64224 -1.49794,3.11951 -2.72241,4.11284 -1.88233,1.52701 -4.09292,2.16837 -7.01735,2.03593 z m 1.90186,-2.96592 c 2.72853,-0.42144 4.56711,-2.7806 4.91898,-6.31176 0.0816,-0.81901 0.03,-2.67939 -0.0969,-3.48793 -0.45751,-2.91707 -1.86951,-4.7758 -4.13189,-5.43914 -1.39608,-0.40934 -3.12252,-0.31226 -4.34095,0.24409 -1.87509,0.8562 -3.05018,2.72099 -3.46732,5.50247 -0.11925,0.79524 -0.1182,2.84378 0.002,3.68757 0.35967,2.52661 1.36928,4.20882 3.1262,5.20882 1.06415,0.60569 2.51934,0.82302 3.98994,0.59588 z"
       id="path4933"
       inkscape:connector-curvature="0" />
    <path
       style="fill:#00b1e4;fill-opacity:1;stroke:#00b1e4;stroke-width:0.00071634;stroke-miterlimit:4;stroke-dasharray:none;stroke-opacity:1"
       d="m 165.69025,113.73311 v -9.96247 h 1.65606 1.65606 v 9.96247 9.96247 h -1.65606 -1.65606 z"
       id="path4935"
       inkscape:connector-curvature="0" />
    <path
       style="fill:#00b1e4;fill-opacity:1;stroke:#00b1e4;stroke-width:0.00071634;stroke-miterlimit:4;stroke-dasharray:none;stroke-opacity:1"
       d="m 165.64225,97.900724 v -1.987818 h 1.68006 1.68006 v 1.987818 1.987817 h -1.68006 -1.68006 z"
       id="path4937"
       inkscape:connector-curvature="0" />
    <path
       style="fill:#00b1e4;fill-opacity:1;stroke:#00b1e4;stroke-width:0.00071634;stroke-miterlimit:4;stroke-dasharray:none;stroke-opacity:1"
       d="m 180.97879,124.53113 c -3.27019,-0.1672 -5.7346,-1.7745 -7.19753,-4.69426 -0.65528,-1.30782 -1.05428,-2.78033 -1.22933,-4.5369 -0.0673,-0.67498 -0.0651,-2.56969 0.004,-3.25066 0.10756,-1.06417 0.3313,-2.11665 0.63134,-2.96989 0.81533,-2.31852 2.41695,-4.12867 4.50516,-5.09173 1.37497,-0.63412 3.00163,-0.91041 4.62677,-0.78587 2.10678,0.16146 3.61924,0.78697 4.87622,2.01664 0.27728,0.27127 0.58868,0.61424 0.692,0.76216 0.10331,0.14792 0.20584,0.26894 0.22786,0.26894 0.0221,0 0.04,-2.32575 0.04,-5.16832 v -5.168334 h 1.65606 1.65606 v 13.891334 13.89134 h -1.48731 -1.4873 l -0.0127,-1.31699 -0.0127,-1.31699 -0.367,0.44001 c -1.21001,1.45072 -2.65012,2.40228 -4.24029,2.80179 -0.8833,0.22191 -1.7126,0.28747 -2.88097,0.22773 z m 2.37337,-3.01274 c 0.22115,-0.0409 0.57399,-0.13545 0.78411,-0.21017 1.33757,-0.47565 2.29107,-1.39718 3.05713,-2.95463 0.65951,-1.34083 0.91781,-2.58862 0.91774,-4.43339 -1.5e-4,-2.87038 -0.64927,-4.82496 -2.06812,-6.22704 -1.24198,-1.2273 -2.86211,-1.75589 -4.70548,-1.53522 -1.93554,0.2317 -3.36903,1.27523 -4.36401,3.17683 -0.46065,0.88037 -0.70765,1.62086 -0.89838,2.69316 -0.10467,0.58849 -0.12115,2.75109 -0.0262,3.43575 0.20774,1.49758 0.60748,2.62177 1.27968,3.59884 1.0077,1.46474 2.43627,2.33773 4.13519,2.52698 0.49718,0.0554 1.38482,0.022 1.88832,-0.0711 z"
       id="path4941"
       inkscape:connector-curvature="0" />
    <path
       style="fill:#00b1e4;fill-opacity:1;stroke:#00b1e4;stroke-width:0.00755905;stroke-miterlimit:4;stroke-dasharray:none;stroke-opacity:1"
       d="m 62.898057,581.75425 c -9.186298,-2.47422 -16.487765,-9.84887 -18.89271,-19.08207 -1.11873,-4.2951 -1.11873,-120.50172 0,-124.79681 2.433328,-9.34218 9.764873,-16.67373 19.107052,-19.10705 2.456543,-0.63985 11.499207,-0.74455 64.306281,-0.74455 54.27885,0 61.80203,0.0918 64.48425,0.78683 8.46293,2.19296 15.00946,8.11439 18.26787,16.52355 l 1.33281,3.43962 0.15442,24.875 0.15442,24.875 h -11.51129 -11.51129 l -0.13953,-22.94792 c -0.13229,-21.75667 -0.18898,-23.00252 -1.09203,-24 l -0.9525,-1.05208 H 127.45279 68.299757 l -1.019478,1.09428 c -1.013729,1.08811 -1.019477,1.41883 -1.019477,58.65572 0,57.2369 0.0058,57.56761 1.019477,58.65572 l 1.019478,1.09428 H 91.780279 115.2608 v 11.25 11.25 l -24.874998,-0.0329 c -19.731377,-0.0261 -25.415261,-0.17842 -27.487745,-0.73661 z"
       id="path4943"
       inkscape:connector-curvature="0"
       transform="scale(0.26458333)" />
    <path
       style="fill:#00b1e4;fill-opacity:1;stroke:#00b1e4;stroke-width:0.00755905;stroke-miterlimit:4;stroke-dasharray:none;stroke-opacity:1"
       d="m 148.7608,664.74047 c -9.96754,-2.15851 -18.441,-10.49474 -20.44746,-20.11631 -0.77044,-3.69454 -0.77707,-119.46054 -0.007,-123.20078 1.99063,-9.6691 10.46466,-18.0766 20.32588,-20.16628 5.03043,-1.066 121.72683,-1.066 126.75727,0 7.305,1.548 15.01261,7.49111 18.05462,13.92138 2.89229,6.1138 2.80196,3.92658 2.80196,67.84529 0,50.05066 -0.10928,59.21349 -0.738,61.88014 -2.34122,9.92994 -10.39358,17.7337 -20.49722,19.8644 -5.09137,1.0737 -121.28166,1.04808 -126.25,-0.0279 z"
       id="path4945"
       inkscape:connector-curvature="0"
       transform="scale(0.26458333)" />
    <path
       style="fill:#00b1e4;fill-opacity:1;stroke:#00b1e4;stroke-width:0.002;stroke-miterlimit:4;stroke-dasharray:none;stroke-opacity:1"
       d="m 85.000252,139.70629 v -5.68854 h -2.168657 c -2.392164,0 -2.329259,0.0235 -2.329259,-0.87072 v -0.4522 h 5.357812 5.357813 v 0.66146 0.66146 h -2.248959 -2.248958 v 5.68854 5.68854 h -0.859896 -0.859896 z"
       id="path4947"
       inkscape:connector-curvature="0" />
    <path
       style="fill:#00b1e4;fill-opacity:1;stroke:#00b1e4;stroke-width:0.002;stroke-miterlimit:4;stroke-dasharray:none;stroke-opacity:1"
       d="m 92.937752,145.48622 c -0.954765,-0.21838 -2.050211,-0.82789 -2.526572,-1.4058 -1.642946,-1.99318 -1.469165,-5.59933 0.350671,-7.27679 0.936482,-0.86323 1.622676,-1.11159 3.101943,-1.12276 1.021053,-0.008 1.372306,0.0439 1.872766,0.27526 1.381159,0.63842 2.191228,2.00201 2.326108,3.91552 l 0.07227,1.02526 h -3.656922 -3.656925 v 0.30971 c 0,0.54009 0.361817,1.53759 0.735374,2.02734 0.211328,0.27707 0.660707,0.61034 1.084702,0.80445 0.660453,0.30237 0.84141,0.326 2.064671,0.26967 1.029229,-0.0474 1.532895,-0.13991 2.167596,-0.39816 l 0.826823,-0.33642 v 0.64143 c 0,0.73696 -0.05724,0.78674 -1.259864,1.09558 -1.148532,0.29495 -2.651604,0.37035 -3.502636,0.17571 z m 3.656621,-6.25692 c -0.22108,-1.61295 -1.526267,-2.60439 -3.114942,-2.36616 -1.474608,0.22113 -2.220571,0.97542 -2.582839,2.61164 l -0.08055,0.3638 h 2.930919 2.93092 z"
       id="path4949"
       inkscape:connector-curvature="0" />
    <path
       style="fill:#00b1e4;fill-opacity:1;stroke:#00b1e4;stroke-width:0.002;stroke-miterlimit:4;stroke-dasharray:none;stroke-opacity:1"
       d="m 103.6497,145.48665 c -1.89575,-0.42648 -3.11725,-1.81653 -3.44338,-3.91853 -0.18188,-1.17221 0.007,-2.56507 0.48092,-3.54228 0.42552,-0.87784 1.45021,-1.80273 2.34169,-2.11361 0.93578,-0.32634 2.9386,-0.32354 3.89867,0.005 l 0.69453,0.23799 v 0.65083 c 0,0.35795 -0.0149,0.6508 -0.0331,0.65076 -0.0182,-4e-5 -0.36049,-0.12776 -0.76067,-0.28383 -1.03423,-0.40334 -2.63722,-0.40906 -3.39372,-0.0121 -0.77887,0.4087 -1.31098,1.11704 -1.57679,2.09901 -0.4822,1.78138 0.0607,3.79378 1.24441,4.61313 0.51132,0.35391 0.69914,0.40181 1.73496,0.44244 0.99787,0.0391 1.27686,-0.001 1.97969,-0.28489 l 0.81814,-0.33046 -0.0395,0.68176 -0.0395,0.68177 -0.66409,0.2205 c -0.93233,0.30957 -2.36688,0.39897 -3.24219,0.20206 z"
       id="path4951"
       inkscape:connector-curvature="0" />
    <path
       style="fill:#00b1e4;fill-opacity:1;stroke:#00b1e4;stroke-width:0.002;stroke-miterlimit:4;stroke-dasharray:none;stroke-opacity:1"
       d="m 110.53254,138.7141 v -6.68073 h 0.72761 0.7276 v 2.63953 2.63954 l 0.64521,-0.64521 c 1.60567,-1.60567 4.35893,-1.33465 5.30629,0.52234 0.40805,0.79983 0.52873,1.9833 0.52979,5.19562 l 10e-4,3.00964 h -0.71457 -0.71458 l -0.052,-3.40651 c -0.0563,-3.68514 -0.11208,-4.00334 -0.81585,-4.65231 -0.38152,-0.35181 -1.40973,-0.51126 -2.26373,-0.35105 -0.60047,0.11265 -1.36442,0.78017 -1.67481,1.46342 -0.21152,0.46561 -0.24126,0.92169 -0.24381,3.73838 l -0.003,3.20807 h -0.7276 -0.7276 z"
       id="path4953"
       inkscape:connector-curvature="0" />
    <path
       style="fill:#00b1e4;fill-opacity:1;stroke:#00b1e4;stroke-width:0.002;stroke-miterlimit:4;stroke-dasharray:none;stroke-opacity:1"
       d="m 121.64504,140.63233 v -4.7625 h 0.72761 0.7276 v 0.7276 c 0,0.40019 0.0299,0.72761 0.0665,0.72761 0.0366,0 0.28552,-0.24244 0.55322,-0.53875 0.62738,-0.69444 1.35915,-1.06151 2.28113,-1.14429 1.43236,-0.12859 2.48274,0.39501 3.11843,1.55447 l 0.39688,0.72388 0.0423,3.73724 0.0423,3.73724 h -0.72892 -0.72892 l -0.041,-3.5388 c -0.036,-3.10761 -0.07,-3.5919 -0.27889,-3.9746 -0.36822,-0.67444 -0.9373,-0.95219 -1.95206,-0.95277 -1.14021,-5.3e-4 -1.92201,0.45984 -2.38808,1.40663 -0.30324,0.61601 -0.31857,0.77994 -0.36013,3.85147 l -0.0434,3.20807 h -0.71727 -0.71728 z"
       id="path4955"
       inkscape:connector-curvature="0" />
    <path
       style="fill:#00b1e4;fill-opacity:1;stroke:#00b1e4;stroke-width:0.002;stroke-miterlimit:4;stroke-dasharray:none;stroke-opacity:1"
       d="m 135.58114,145.52907 c -1.9135,-0.40443 -3.12843,-2.00829 -3.31058,-4.37035 -0.25565,-3.31525 1.50449,-5.55347 4.36727,-5.55347 2.59053,0 4.3218,1.96932 4.3218,4.91607 0,2.99563 -1.46892,4.86589 -3.97277,5.05822 -0.47074,0.0362 -1.1033,0.0134 -1.40572,-0.0505 z m 2.11841,-1.37458 c 0.58917,-0.24617 1.24147,-1.06685 1.47794,-1.85945 0.2565,-0.85976 0.24761,-2.49465 -0.0184,-3.39054 -0.14655,-0.49349 -0.38477,-0.88921 -0.76295,-1.26739 -1.48358,-1.48358 -3.74974,-0.81163 -4.37611,1.29757 -0.2581,0.86914 -0.26273,2.51147 -0.009,3.36036 0.23101,0.77431 0.88166,1.60689 1.44873,1.85381 0.53313,0.23214 1.69124,0.23506 2.24031,0.006 z"
       id="path4957"
       inkscape:connector-curvature="0" />
    <path
       style="fill:#00b1e4;fill-opacity:1;stroke:#00b1e4;stroke-width:0.002;stroke-miterlimit:4;stroke-dasharray:none;stroke-opacity:1"
       d="m 143.73775,138.7141 v -6.68073 h 0.72761 0.7276 v 6.68073 6.68073 h -0.7276 -0.72761 z"
       id="path4959"
       inkscape:connector-curvature="0" />
    <path
       style="fill:#00b1e4;fill-opacity:1;stroke:#00b1e4;stroke-width:0.002;stroke-miterlimit:4;stroke-dasharray:none;stroke-opacity:1"
       d="m 151.34452,145.53075 c -1.40523,-0.30248 -2.24713,-0.95352 -2.87075,-2.21996 -0.42863,-0.87044 -0.43654,-0.91891 -0.43654,-2.67545 0,-1.68494 0.0218,-1.83607 0.37452,-2.59938 0.44799,-0.96945 1.10877,-1.64768 2.00673,-2.05972 0.53506,-0.24551 0.88897,-0.30325 1.85208,-0.30213 1.50028,0.002 2.321,0.33213 3.16957,1.27595 1.71791,1.91073 1.52794,6.10017 -0.34946,7.70716 -0.87468,0.74869 -2.53141,1.13501 -3.74615,0.87353 z m 2.20585,-1.49259 c 0.90099,-0.55051 1.34013,-1.38548 1.50772,-2.86676 0.1897,-1.67672 -0.47255,-3.42411 -1.53076,-4.03899 -0.63573,-0.3694 -1.8778,-0.3694 -2.51354,0 -1.6591,0.96404 -2.09482,4.45086 -0.78588,6.28909 0.64813,0.91022 2.33085,1.22254 3.32246,0.61666 z"
       id="path4961"
       inkscape:connector-curvature="0" />
    <path
       style="fill:#00b1e4;fill-opacity:1;stroke:#00b1e4;stroke-width:0.00273981;stroke-miterlimit:4;stroke-dasharray:none;stroke-opacity:1"
       d="m 140.81129,129.27836 c -11.31425,-0.0927 -32.49249,-0.2547 -47.062765,-0.35985 l -26.491406,-0.19113 v -0.61207 -0.61205 l 13.26224,0.15464 c 7.294232,0.085 28.799891,0.26042 47.790361,0.3898 18.99047,0.1293 41.12121,0.30792 49.17943,0.39677 14.19936,0.15652 14.6513,0.17585 14.6513,0.62639 0,0.45184 -0.42943,0.46359 -15.3789,0.42055 -8.4584,-0.0244 -24.63602,-0.1201 -35.95026,-0.21296 z"
       id="path4963"
       inkscape:connector-curvature="0" />
    <path
       style="fill:#00b1e4;fill-opacity:1;stroke:#00b1e4;stroke-width:0.002;stroke-miterlimit:4;stroke-dasharray:none;stroke-opacity:1"
       d="m 161.85104,148.95196 c -0.55157,-0.0452 -1.2213,-0.15433 -1.48828,-0.24244 -0.4716,-0.15565 -0.48543,-0.17876 -0.48543,-0.81141 0,-0.35816 0.0169,-0.6512 0.0377,-0.6512 0.0207,0 0.39144,0.12434 0.82383,0.27632 1.06484,0.37426 2.57598,0.38321 3.39682,0.0201 1.0587,-0.46832 1.56037,-1.44514 1.56179,-3.04105 l 7.9e-4,-0.82638 -0.62838,0.64809 c -1.39215,1.4358 -3.53711,1.4205 -4.99323,-0.0356 -1.01984,-1.01984 -1.30653,-1.85112 -1.30653,-3.78835 0,-1.27814 0.0491,-1.64653 0.30693,-2.30436 0.35365,-0.90219 1.15358,-1.83382 1.90272,-2.216 1.47008,-0.74998 3.51514,-0.28607 4.43272,1.00553 l 0.28577,0.40225 v -0.75881 -0.75882 h 0.72761 0.7276 v 4.81471 c 0,4.42139 -0.0213,4.88385 -0.26139,5.66101 -0.62629,2.02768 -2.19672,2.83967 -5.04094,2.60642 z m 2.41641,-5.09115 c 0.497,-0.25701 1.02083,-0.98252 1.24343,-1.72219 0.24973,-0.82978 0.23746,-2.47995 -0.025,-3.36379 -0.70882,-2.38687 -3.69376,-2.6683 -4.85356,-0.45761 -0.33214,0.63309 -0.47488,2.84532 -0.23989,3.718 0.27686,1.02817 1.01304,1.8265 1.88242,2.04134 0.55113,0.1362 1.51354,0.032 1.99262,-0.21575 z"
       id="path4965"
       inkscape:connector-curvature="0" />
    <path
       style="fill:#00b1e4;fill-opacity:1;stroke:#00b1e4;stroke-width:0.002;stroke-miterlimit:4;stroke-dasharray:none;stroke-opacity:1"
       d="m 170.59296,140.63233 v -4.7625 h 0.7276 0.72761 v 4.7625 4.7625 h -0.72761 -0.7276 z"
       id="path4967"
       inkscape:connector-curvature="0" />
    <path
       style="fill:#00b1e4;fill-opacity:1;stroke:#00b1e4;stroke-width:0.002;stroke-miterlimit:4;stroke-dasharray:none;stroke-opacity:1"
       d="m 170.59296,133.02556 v -0.99219 h 0.7276 0.72761 v 0.99219 0.99219 h -0.72761 -0.7276 z"
       id="path4969"
       inkscape:connector-curvature="0" />
    <path
       style="fill:#00b1e4;fill-opacity:1;stroke:#00b1e4;stroke-width:0.002;stroke-miterlimit:4;stroke-dasharray:none;stroke-opacity:1"
       d="m 178.64564,145.53242 c -1.47635,-0.2678 -2.75443,-1.21062 -3.38317,-2.49571 -0.30155,-0.61635 -0.37173,-0.95974 -0.41467,-2.0289 -0.0975,-2.42678 0.70907,-4.03806 2.45044,-4.89538 0.81464,-0.40107 1.004,-0.44104 2.08929,-0.44104 0.93461,0 1.32402,0.0604 1.79548,0.27856 1.49935,0.69375 2.23661,1.8843 2.34509,3.78694 l 0.0661,1.16002 h -3.65793 -3.65794 l 0.0869,0.56224 c 0.19391,1.25449 0.7331,2.0719 1.67694,2.54224 0.99569,0.49617 2.65029,0.47694 4.15933,-0.0483 l 1.09141,-0.37991 v 0.64953 c 0,0.58673 -0.0352,0.66296 -0.3638,0.78836 -1.27185,0.48536 -3.19298,0.71919 -4.28352,0.52138 z m 3.41274,-6.37618 c -0.094,-0.79336 -0.57344,-1.59555 -1.17081,-1.95884 -0.89867,-0.54651 -2.2976,-0.45728 -3.32626,0.21216 -0.55112,0.35867 -1.14396,1.42682 -1.14622,2.06522 l -0.001,0.3638 h 2.8627 2.8627 z"
       id="path4971"
       inkscape:connector-curvature="0" />
    <path
       style="fill:#00b1e4;fill-opacity:1;stroke:#00b1e4;stroke-width:0.002;stroke-miterlimit:4;stroke-dasharray:none;stroke-opacity:1"
       d="m 187.72473,145.51947 c -0.43656,-0.0671 -1.06164,-0.19939 -1.38906,-0.29396 l -0.59531,-0.17194 -0.0393,-0.74255 -0.0393,-0.74254 0.78197,0.31585 c 1.50041,0.60604 3.47906,0.6627 4.30243,0.12321 0.74013,-0.48495 0.79025,-1.68413 0.0912,-2.18189 -0.21074,-0.15006 -1.07677,-0.44921 -1.92451,-0.66479 -2.35613,-0.59915 -3.0069,-1.08889 -3.18632,-2.39788 -0.17162,-1.25215 0.3911,-2.24873 1.56519,-2.77192 0.58627,-0.26125 0.91925,-0.31137 2.08665,-0.31408 0.76398,-0.002 1.73136,0.0749 2.14974,0.17034 l 0.76067,0.17356 v 0.70551 0.70552 l -0.66012,-0.25082 c -1.4771,-0.56126 -3.47627,-0.44608 -4.16215,0.2398 -0.45687,0.45687 -0.4662,1.24229 -0.02,1.68842 0.31092,0.31093 0.62445,0.42197 2.82513,1.00055 1.8455,0.4852 2.54636,1.21403 2.54636,2.64797 0,1.65837 -1.22729,2.66552 -3.43958,2.82261 -0.47294,0.0336 -1.21708,0.006 -1.65364,-0.061 z"
       id="path4973"
       inkscape:connector-curvature="0" />
    <text
       xml:space="preserve"
       style="font-style:normal;font-variant:normal;font-weight:normal;font-stretch:normal;font-size:10.58333302px;line-height:1.25;font-family:Carlito;-inkscape-font-specification:Carlito;letter-spacing:0px;word-spacing:0px;fill:#000000;fill-opacity:1;stroke:none;stroke-width:0.26458332"
       x="137.631"
       y="165.14615"
       id="text5034"><tspan
         sodipodi:role="line"
         id="tspan5032"
         x="137.631"
         y="174.40657"
         style="stroke-width:0.26458332"></tspan></text>
    <flowRoot
       xml:space="preserve"
       id="flowRoot5040"
       style="fill:black;fill-opacity:1;stroke:none;font-family:Carlito;font-style:normal;font-weight:normal;font-size:40px;line-height:1.25;letter-spacing:0px;word-spacing:0px;-inkscape-font-specification:Carlito;font-stretch:normal;font-variant:normal"><flowRegion
         id="flowRegion5042"><rect
           id="rect5044"
           width="347.89655"
           height="84.852814"
           x="306.17725"
           y="217.84184" /></flowRegion><flowPara
         id="flowPara5046"></flowPara></flowRoot>    <text
       xml:space="preserve"
       style="font-style:normal;font-variant:normal;font-weight:normal;font-stretch:normal;font-size:10.58333302px;line-height:1.25;font-family:Carlito;-inkscape-font-specification:Carlito;letter-spacing:0px;word-spacing:0px;fill:#000000;fill-opacity:1;stroke:#00b1e4;stroke-width:0.26458332;stroke-opacity:1;"
       x="140.52144"
       y="167.38249"
       id="text5050"><tspan
         sodipodi:role="line"
         id="tspan5048"
         x="140.52144"
         y="176.64291"
         style="stroke-width:0.26458332;stroke:#00b1e4;stroke-opacity:1;" /></text>
  </g>
</svg>
